<svg width="187" height="52" viewBox="0 0 187 52" fill="none" xmlns="http://www.w3.org/2000/svg">
<g style="mix-blend-mode:color-dodge">
<path fill-rule="evenodd" clip-rule="evenodd" d="M28.6417 19.7303C27.8346 19.082 26.5945 18.3058 24.9213 17.4016L41.1319 0H18.9862L17.5984 2.99409H33.6319L18.9567 18.8602C21.9488 19.2526 24.3898 20.3104 26.2795 22.0335C28.189 23.7395 29.2028 25.7953 29.3209 28.2008H20.0787C17.2244 28.2008 14.8228 28.3458 12.874 28.6358C10.9252 28.9088 9.20276 29.3609 7.70669 29.9921C5.30512 31.0157 3.40551 32.4829 2.00787 34.3937C0.669291 36.2192 0 38.2238 0 40.4075C0 42.8983 1.10236 45.1503 3.30709 47.1634C5.57087 49.2277 8.60236 50.2598 12.4016 50.2598C16.5551 50.2598 20.4429 49.1083 24.065 46.8051C28.5728 43.939 31.5059 40.1772 32.8642 35.5197C33.1004 34.6837 33.2972 33.6857 33.4547 32.5256C33.5138 32.0308 33.5728 31.5958 33.6319 31.2205H37.7067L39.0945 28.2008H33.4252C33.0512 25.9829 32.2244 23.9698 30.9449 22.1614C30.2362 21.189 29.4685 20.3786 28.6417 19.7303ZM14.4094 31.502C15.8858 31.3143 17.9429 31.2205 20.5807 31.2205H29.6457C29.6457 32.3294 29.4488 33.5577 29.0551 34.9055C28.6811 36.2533 28.1791 37.4816 27.5492 38.5905C26.1516 41.0472 24.0453 43.086 21.2303 44.7067C18.4154 46.3445 15.5807 47.1634 12.7264 47.1634C9.47835 47.1634 7.01772 46.2165 5.34449 44.3228C4.26181 43.0945 3.72047 41.7041 3.72047 40.1516C3.72047 38.4797 4.2815 36.9698 5.40354 35.622C6.54528 34.2913 8.13976 33.2507 10.187 32.5C11.5256 32.0052 12.9331 31.6726 14.4094 31.502ZM82.559 17.9901C81.2401 17.9901 79.6554 18.3911 77.805 19.1929L79.3109 15.9941H76.2991L59.2617 52H62.6574L72.2834 31.9114C73.0511 32.8327 73.7204 33.4127 74.2912 33.6516C74.8621 33.8904 75.8365 34.0098 77.2145 34.0098C79.6751 34.0098 81.5353 33.7113 82.7952 33.1142C84.2125 32.4488 85.4527 31.4764 86.5157 30.1968C88.1692 28.2349 88.996 26.1194 88.996 23.8504C88.996 22.2467 88.4448 20.8989 87.3424 19.8071C86.1023 18.5958 84.5078 17.9901 82.559 17.9901ZM75.3247 30.9134C74.6948 30.538 74.1141 29.9324 73.5826 29.0964L75.3542 25.3346C75.8661 24.2257 76.2991 23.4409 76.6535 22.9803C77.0078 22.5197 77.4901 22.0846 78.1003 21.6752C79.1633 21.0098 80.2755 20.6772 81.4369 20.6772C82.6377 20.6772 83.6416 21.0184 84.4487 21.7008C85.2755 22.3832 85.6889 23.2277 85.6889 24.2342C85.6889 25.2579 85.3247 26.3583 84.5964 27.5354C83.8877 28.7126 83.0412 29.6083 82.057 30.2224C80.7184 31.0413 79.2125 31.4508 77.5393 31.4508C76.6928 31.4508 75.9546 31.2716 75.3247 30.9134ZM179.941 28.1752C179.409 29.2159 179.144 29.8983 179.144 30.2224C179.144 30.7342 179.35 31.084 179.764 31.2716C180.177 31.4422 180.964 31.5275 182.126 31.5275H186.496L185.285 34.0866H181.535C180.039 34.0525 179.163 34.0269 178.907 34.0098C178.651 33.9928 178.327 33.9075 177.933 33.7539C177.106 33.4468 176.535 32.8924 176.22 32.0905C175.886 32.2782 175.551 32.4829 175.216 32.7047C174.488 33.1824 173.898 33.5236 173.445 33.7283C172.775 34.0354 171.703 34.189 170.226 34.189C168.396 34.189 166.968 33.9075 165.945 33.3445C164.114 32.3208 163.199 30.7513 163.199 28.6358C163.199 27.0321 163.671 25.454 164.616 23.9016C165.423 22.5538 166.466 21.4193 167.746 20.498C169.892 18.9285 172.274 18.1437 174.892 18.1437C175.994 18.1437 176.988 18.3569 177.874 18.7834C178.779 19.1929 179.468 19.7729 179.941 20.5236L180.915 18.6043H184.429L179.941 28.1752ZM177.313 26.1535C177.884 24.9934 178.169 24.166 178.169 23.6712C178.169 22.8523 177.835 22.1699 177.165 21.624C176.496 21.061 175.659 20.7795 174.655 20.7795C173.612 20.7795 172.539 21.0354 171.437 21.5472C170.354 22.059 169.419 22.7414 168.632 23.5945C167.274 25.0617 166.594 26.5374 166.594 28.0216C166.594 29.1647 166.959 30.0603 167.687 30.7086C168.415 31.3399 169.429 31.6555 170.728 31.6555C171.476 31.6555 172.106 31.5446 172.618 31.3228C173.13 31.101 174.203 30.4613 175.837 29.4035L177.313 26.1535ZM151.181 32.1161C151.024 32.2014 150.856 32.2953 150.679 32.3976C150.522 32.4829 150.354 32.5768 150.177 32.6791C149.823 32.8839 149.518 33.0545 149.262 33.1909C149.006 33.3274 148.799 33.4383 148.642 33.5236C147.854 33.899 146.781 34.0866 145.423 34.0866C144.813 34.0866 144.281 34.0781 143.829 34.061C143.376 34.0269 142.982 33.9757 142.648 33.9075C142.313 33.8392 142.008 33.7539 141.732 33.6516C141.457 33.5322 141.191 33.3957 140.935 33.2421C139.695 32.4574 139.075 31.3314 139.075 29.8642C139.075 29.0623 139.488 27.6975 140.315 25.7697L143.533 18.4764H147.047L143.533 26.5886C142.943 27.9534 142.648 28.8747 142.648 29.3524C142.648 30.7343 143.77 31.4252 146.014 31.4252C146.683 31.4252 147.303 31.2972 147.874 31.0413C148.15 30.9049 148.524 30.7001 148.996 30.4272C149.488 30.1371 150.079 29.7703 150.768 29.3268L155.64 18.4764H159.065L154.783 28.1496C154.35 29.0197 154.134 29.668 154.134 30.0945C154.134 30.2992 154.311 30.521 154.665 30.7598C155.039 30.9816 155.541 31.1608 156.171 31.2972C156.821 31.4337 157.579 31.502 158.445 31.502C159.311 31.502 160.236 31.3825 161.22 31.1437L156.644 38.872L152.716 38.8209L155.863 33.9791C155.331 33.9694 154.853 33.9455 154.429 33.9075C153.878 33.8392 153.396 33.7369 152.982 33.6004C152.569 33.4469 152.214 33.2507 151.919 33.0118C151.644 32.773 151.398 32.4744 151.181 32.1161ZM130.335 30.0945C130.335 29.7021 130.551 29.0538 130.984 28.1496L135.266 18.4764H131.841L126.969 29.3268C125.61 30.2139 124.646 30.7854 124.075 31.0413C123.504 31.2972 122.884 31.4252 122.215 31.4252C119.971 31.4252 118.848 30.7343 118.848 29.3524C118.848 28.8576 119.144 27.9364 119.734 26.5886L123.248 18.4764H119.734L116.516 25.7697C115.689 27.6804 115.276 29.0453 115.276 29.8642C115.276 31.3143 115.896 32.4403 117.136 33.2421C117.648 33.5663 118.219 33.7881 118.848 33.9075C119.478 34.0269 120.404 34.0866 121.624 34.0866C122.963 34.0866 124.035 33.899 124.843 33.5236C125.158 33.3701 125.669 33.0886 126.378 32.6791C126.732 32.4744 127.067 32.2867 127.382 32.1161C127.815 32.8156 128.415 33.3018 129.183 33.5748C129.951 33.8478 131.102 33.9843 132.638 33.9843H136.476L137.658 31.3484H133.258C131.309 31.3484 130.335 30.9304 130.335 30.0945ZM92.7165 34.189H89.3208L96.1712 18.7323H99.5078L96.9684 24.5669L106.24 24.5157L108.927 18.8858H112.293L107.923 28.2264C107.372 29.3865 107.096 30.0689 107.096 30.2736C107.096 31.229 108.031 31.7067 109.902 31.7067H114.39L113.179 34.2657H109.518C108.081 34.2657 107.106 34.2231 106.594 34.1378C106.083 34.0354 105.561 33.8051 105.029 33.4468C104.045 32.7985 103.553 31.9626 103.553 30.939C103.553 30.393 103.976 29.2415 104.823 27.4842L105.177 26.7421H96.0236L95.4035 28.2264L92.7165 34.189ZM60.5905 28.1752C60.059 29.2159 59.7933 29.8983 59.7933 30.2224C59.7933 30.7342 60 31.084 60.4133 31.2716C60.8267 31.4422 61.6141 31.5275 62.7756 31.5275H67.1456L65.935 34.0866H62.185C60.6889 34.0525 59.813 34.0269 59.557 34.0098C59.3011 33.9928 58.9763 33.9075 58.5826 33.7539C57.7559 33.4468 57.185 32.8924 56.87 32.0905C56.5354 32.2782 56.2008 32.4829 55.8661 32.7047C55.1378 33.1824 54.5472 33.5236 54.0945 33.7283C53.4252 34.0354 52.3523 34.189 50.8759 34.189C49.0452 34.189 47.6181 33.9075 46.5945 33.3445C44.7637 32.3208 43.8484 30.7513 43.8484 28.6358C43.8484 27.0321 44.3208 25.454 45.2657 23.9016C46.0728 22.5538 47.1161 21.4193 48.3956 20.498C50.5413 18.9285 52.9232 18.1437 55.5413 18.1437C56.6437 18.1437 57.6378 18.3569 58.5236 18.7834C59.4291 19.1929 60.1181 19.7729 60.5905 20.5236L61.5649 18.6043H65.0787L60.5905 28.1752ZM57.9626 26.1535C58.5334 24.9934 58.8189 24.166 58.8189 23.6712C58.8189 22.8523 58.4842 22.1699 57.8149 21.624C57.1456 21.061 56.309 20.7795 55.3051 20.7795C54.2618 20.7795 53.1889 21.0354 52.0866 21.5472C51.0039 22.059 50.0689 22.7414 49.2815 23.5945C47.9232 25.0617 47.2441 26.5374 47.2441 28.0216C47.2441 29.1647 47.6082 30.0603 48.3366 30.7086C49.0649 31.3399 50.0787 31.6555 51.3779 31.6555C52.1259 31.6555 52.7559 31.5446 53.2677 31.3228C53.7795 31.101 54.8523 30.4613 56.4862 29.4035L57.9626 26.1535Z" fill="url(#paint0_linear_11_653)"/>
</g>
<defs>
<linearGradient id="paint0_linear_11_653" x1="0" y1="26" x2="186.496" y2="26" gradientUnits="userSpaceOnUse">
<stop stop-color="#708D22"/>
<stop offset="0.5" stop-color="#978716"/>
<stop offset="1" stop-color="#7B4810"/>
</linearGradient>
</defs>
</svg>
